<svg id="Layer_1" data-name="Layer 1" xmlns="http://www.w3.org/2000/svg" viewBox="0 0 500 500"><defs><style>.cls-1{fill:none;stroke-width:4.35px;}.cls-1,.cls-3{stroke:#fff;stroke-miterlimit:10;}.cls-2,.cls-3,.cls-4{fill:#fff;}.cls-3{stroke-width:5px;}.cls-4{font-size:48px;font-family:ITCAvantGardePro-Bk, ITC Avant Garde Gothic Pro;}.cls-5{letter-spacing:-0.01em;}.cls-6{letter-spacing:-0.05em;}</style></defs><title>White_logo_wordmark</title><rect class="cls-1" x="108.58" y="77.58" width="282.84" height="282.84" transform="translate(-81.63 240.92) rotate(-45)"/><path class="cls-2" d="M123.49,255l8.18-7.87c5.86,8.95,13.89,13.27,21.75,13.27,14.35,0,20.83-7.26,20.83-23.92V179.5H132V168.55h55.39v69c0,18.82-8.49,34.25-33.64,34.25A35.11,35.11,0,0,1,123.49,255Z"/><path class="cls-2" d="M336.09,179.66H302.61v-11h79.92v11H349.05v90.25h-13Z"/><line class="cls-3" x1="250" y1="141.86" x2="250" y2="296.14"/><text class="cls-4" transform="translate(87.5 472.67)">Je<tspan class="cls-5" x="54.34" y="0">r</tspan><tspan x="68.45" y="0">emy </tspan><tspan class="cls-6" x="183.69" y="0">T</tspan><tspan x="201.65" y="0">arshis</tspan></text></svg>